<mxfile host="app.diagrams.net" modified="2021-03-15T02:34:50.219Z" agent="5.0 (Windows NT 10.0; WOW64) AppleWebKit/537.36 (KHTML, like Gecko) coc_coc_browser/93.0.148 Chrome/87.0.4280.148 Safari/537.36" etag="GuAJ315P39hsQG1eKIvx" version="14.4.7" type="github">
  <diagram id="mERWQIm2oXiUjIYFXlcz" name="Page-1">
    <mxGraphModel dx="1483" dy="3063" grid="1" gridSize="10" guides="1" tooltips="1" connect="1" arrows="1" fold="1" page="1" pageScale="1" pageWidth="1654" pageHeight="2336" math="0" shadow="0">
      <root>
        <mxCell id="0" />
        <mxCell id="1" parent="0" />
        <mxCell id="dVYivlDmIC8qaiZZ1NIj-1" value="Màn hình chi tiết tiến độ" style="ellipse;whiteSpace=wrap;html=1;fontSize=14;" vertex="1" parent="1">
          <mxGeometry x="280" y="-420" width="180" height="90" as="geometry" />
        </mxCell>
        <mxCell id="dVYivlDmIC8qaiZZ1NIj-2" value="Đánh giá tiến độ" style="ellipse;whiteSpace=wrap;html=1;fontSize=14;" vertex="1" parent="1">
          <mxGeometry x="610" y="-260" width="180" height="90" as="geometry" />
        </mxCell>
        <mxCell id="dVYivlDmIC8qaiZZ1NIj-3" value="Nộp báo cáo theo từng tiến độ" style="ellipse;whiteSpace=wrap;html=1;fontSize=14;" vertex="1" parent="1">
          <mxGeometry x="610" y="-580" width="180" height="90" as="geometry" />
        </mxCell>
        <mxCell id="dVYivlDmIC8qaiZZ1NIj-4" value="Extend" style="endArrow=open;endSize=12;dashed=1;html=1;fontSize=14;exitX=0;exitY=0.5;exitDx=0;exitDy=0;entryX=1;entryY=0.5;entryDx=0;entryDy=0;" edge="1" parent="1" source="dVYivlDmIC8qaiZZ1NIj-3" target="dVYivlDmIC8qaiZZ1NIj-1">
          <mxGeometry width="160" relative="1" as="geometry">
            <mxPoint x="480" y="-410" as="sourcePoint" />
            <mxPoint x="640" y="-410" as="targetPoint" />
          </mxGeometry>
        </mxCell>
        <mxCell id="dVYivlDmIC8qaiZZ1NIj-5" value="Extend" style="endArrow=open;endSize=12;dashed=1;html=1;fontSize=14;exitX=0;exitY=0.5;exitDx=0;exitDy=0;entryX=1;entryY=0.5;entryDx=0;entryDy=0;" edge="1" parent="1" source="dVYivlDmIC8qaiZZ1NIj-2" target="dVYivlDmIC8qaiZZ1NIj-1">
          <mxGeometry width="160" relative="1" as="geometry">
            <mxPoint x="646.3603896932107" y="-463.18019484660545" as="sourcePoint" />
            <mxPoint x="470" y="-365" as="targetPoint" />
          </mxGeometry>
        </mxCell>
        <mxCell id="dVYivlDmIC8qaiZZ1NIj-6" value="Thắc mắc của sinh viên" style="ellipse;whiteSpace=wrap;html=1;fontSize=14;" vertex="1" parent="1">
          <mxGeometry x="600" y="-420" width="190" height="90" as="geometry" />
        </mxCell>
        <mxCell id="dVYivlDmIC8qaiZZ1NIj-7" value="Extend" style="endArrow=open;endSize=12;dashed=1;html=1;fontSize=14;exitX=0;exitY=0.5;exitDx=0;exitDy=0;" edge="1" parent="1" source="dVYivlDmIC8qaiZZ1NIj-6">
          <mxGeometry width="160" relative="1" as="geometry">
            <mxPoint x="620" y="-525" as="sourcePoint" />
            <mxPoint x="460" y="-375" as="targetPoint" />
          </mxGeometry>
        </mxCell>
        <mxCell id="dVYivlDmIC8qaiZZ1NIj-8" value="Giác viên/ Sinh viên" style="shape=umlActor;verticalLabelPosition=bottom;verticalAlign=top;html=1;outlineConnect=0;fontSize=14;" vertex="1" parent="1">
          <mxGeometry x="50" y="-465" width="90" height="180" as="geometry" />
        </mxCell>
        <mxCell id="dVYivlDmIC8qaiZZ1NIj-9" value="Đăng nhập" style="ellipse;whiteSpace=wrap;html=1;fontSize=14;" vertex="1" parent="1">
          <mxGeometry x="930" y="-420" width="190" height="90" as="geometry" />
        </mxCell>
        <mxCell id="dVYivlDmIC8qaiZZ1NIj-10" value="Include" style="endArrow=open;endSize=12;dashed=1;html=1;fontSize=14;exitX=1;exitY=0.5;exitDx=0;exitDy=0;entryX=0;entryY=0.5;entryDx=0;entryDy=0;" edge="1" parent="1" source="dVYivlDmIC8qaiZZ1NIj-3" target="dVYivlDmIC8qaiZZ1NIj-9">
          <mxGeometry width="160" relative="1" as="geometry">
            <mxPoint x="620" y="-525" as="sourcePoint" />
            <mxPoint x="470" y="-365" as="targetPoint" />
          </mxGeometry>
        </mxCell>
        <mxCell id="dVYivlDmIC8qaiZZ1NIj-11" value="Include" style="endArrow=open;endSize=12;dashed=1;html=1;fontSize=14;exitX=1;exitY=0.5;exitDx=0;exitDy=0;" edge="1" parent="1" source="dVYivlDmIC8qaiZZ1NIj-6">
          <mxGeometry width="160" relative="1" as="geometry">
            <mxPoint x="800" y="-525" as="sourcePoint" />
            <mxPoint x="930" y="-375" as="targetPoint" />
          </mxGeometry>
        </mxCell>
        <mxCell id="dVYivlDmIC8qaiZZ1NIj-12" value="Include" style="endArrow=open;endSize=12;dashed=1;html=1;fontSize=14;exitX=1;exitY=0.5;exitDx=0;exitDy=0;entryX=0;entryY=0.5;entryDx=0;entryDy=0;" edge="1" parent="1" source="dVYivlDmIC8qaiZZ1NIj-2" target="dVYivlDmIC8qaiZZ1NIj-9">
          <mxGeometry width="160" relative="1" as="geometry">
            <mxPoint x="810" y="-515" as="sourcePoint" />
            <mxPoint x="940" y="-350" as="targetPoint" />
          </mxGeometry>
        </mxCell>
        <mxCell id="dVYivlDmIC8qaiZZ1NIj-13" value="" style="rounded=0;fontSize=14;whiteSpace=wrap;html=1;glass=0;shadow=0;sketch=0;fillColor=none;" vertex="1" parent="1">
          <mxGeometry x="210" y="-615" width="970" height="480" as="geometry" />
        </mxCell>
        <mxCell id="dVYivlDmIC8qaiZZ1NIj-14" value="" style="endArrow=none;html=1;fontSize=14;exitX=1;exitY=0.3333333333333333;exitDx=0;exitDy=0;exitPerimeter=0;entryX=0;entryY=0.5;entryDx=0;entryDy=0;" edge="1" parent="1" source="dVYivlDmIC8qaiZZ1NIj-8" target="dVYivlDmIC8qaiZZ1NIj-1">
          <mxGeometry width="50" height="50" relative="1" as="geometry">
            <mxPoint x="400" y="-200" as="sourcePoint" />
            <mxPoint x="450" y="-250" as="targetPoint" />
          </mxGeometry>
        </mxCell>
      </root>
    </mxGraphModel>
  </diagram>
</mxfile>
